<svg width="238" height="118" viewBox="0 0 238 118" fill="none" xmlns="http://www.w3.org/2000/svg">
<path d="M220.67 45.0154C212.305 85.2683 159.516 109.582 102.762 99.3213C46.0082 89.0608 6.78091 48.1116 15.1456 7.8588C23.5103 -32.394 76.7171 -26.2727 133.053 -46.447C189.39 -66.6214 229.035 4.76263 220.67 45.0154Z" fill="url(#paint0_linear)"/>
<path d="M175.074 80.9643C181.19 71.7111 199.453 60.1663 203.824 72.8567C208.195 85.5472 216.542 89.0048 210.426 98.258C204.31 107.511 191.438 111.141 181.676 106.365C171.914 101.59 168.958 90.2175 175.074 80.9643Z" fill="url(#paint1_linear)"/>
<path fill-rule="evenodd" clip-rule="evenodd" d="M80.1287 55.0495C80.3202 55.217 80.5355 55.3007 80.7748 55.3007H85.3696C85.6328 55.3007 85.8482 55.217 86.0157 55.0495C86.1832 54.8819 86.267 54.6666 86.267 54.4033V44.6037C86.267 43.4789 86.5541 42.6174 87.1285 42.0191C87.7267 41.3969 88.5404 41.0858 89.5694 41.0858C90.5984 41.0858 91.3762 41.3969 91.9027 42.0191C92.4531 42.6174 92.7283 43.4789 92.7283 44.6037V54.4033C92.7283 54.6426 92.812 54.858 92.9795 55.0495C93.171 55.217 93.3864 55.3007 93.6257 55.3007H98.2563C98.5195 55.3007 98.7349 55.217 98.9024 55.0495C99.0699 54.858 99.1537 54.6426 99.1537 54.4033V44.3883C99.1537 42.6653 98.8426 41.1935 98.2204 39.9731C97.5982 38.7526 96.7367 37.8313 95.6359 37.2091C94.559 36.5869 93.3265 36.2758 91.9386 36.2758C89.5933 36.2758 87.7028 37.0894 86.267 38.7167V30.7119C86.267 30.4486 86.1832 30.2332 86.0157 30.0657C85.8482 29.8982 85.6328 29.8145 85.3696 29.8145H80.7748C80.5355 29.8145 80.3202 29.8982 80.1287 30.0657C79.9612 30.2332 79.8774 30.4486 79.8774 30.7119V54.4033C79.8774 54.6426 79.9612 54.858 80.1287 55.0495ZM62.1503 53.5059C63.8255 54.9418 66.0152 55.6597 68.7193 55.6597C70.8253 55.6597 72.5842 55.2768 73.9961 54.511C75.408 53.7213 76.437 52.8119 77.0832 51.7829C77.7532 50.7539 78.0882 49.8565 78.0882 49.0907C78.0882 48.8514 77.9925 48.6599 77.8011 48.5164C77.6336 48.3488 77.4302 48.2651 77.1908 48.2651H72.632C72.3688 48.2651 72.1654 48.3249 72.0218 48.4446C71.8782 48.5642 71.7466 48.7437 71.6269 48.983C71.3637 49.7249 71.0167 50.2513 70.5859 50.5624C70.1552 50.8735 69.5689 51.0291 68.827 51.0291C67.8698 51.0291 67.128 50.73 66.6015 50.1317C66.0989 49.5095 65.8237 48.5523 65.7759 47.26L65.74 46.0754L65.7759 44.7114C65.8477 42.1747 66.8647 40.9064 68.827 40.9064C69.521 40.9064 70.0834 41.0619 70.5142 41.373C70.9688 41.6841 71.3398 42.2106 71.6269 42.9525C71.7466 43.1918 71.8782 43.3712 72.0218 43.4909C72.1654 43.6105 72.3688 43.6704 72.632 43.6704H77.1908C77.4541 43.6704 77.6695 43.5866 77.837 43.4191C78.0284 43.2277 78.1122 43.0123 78.0882 42.773C78.0404 41.9354 77.6695 41.0141 76.9755 40.009C76.3054 38.9799 75.2644 38.1065 73.8525 37.3885C72.4645 36.6467 70.7535 36.2758 68.7193 36.2758C66.0152 36.2758 63.8135 37.0057 62.1145 38.4654C60.4393 39.9252 59.5539 41.9474 59.4581 44.5319L59.4222 46.0036L59.4581 47.4395C59.5778 50.024 60.4752 52.0461 62.1503 53.5059ZM110.619 55.6597C107.651 55.6597 105.366 54.9537 103.762 53.5418C102.159 52.1299 101.286 50.1436 101.142 47.5831C101.118 47.272 101.106 46.7335 101.106 45.9677C101.106 45.2019 101.118 44.6635 101.142 44.3524C101.286 41.8157 102.183 39.8414 103.834 38.4295C105.485 36.9937 107.747 36.2758 110.619 36.2758C113.514 36.2758 115.788 36.9937 117.439 38.4295C119.09 39.8414 119.987 41.8157 120.131 44.3524C120.155 44.6635 120.167 45.2019 120.167 45.9677C120.167 46.7335 120.155 47.272 120.131 47.5831C119.987 50.1436 119.114 52.1299 117.511 53.5418C115.907 54.9537 113.61 55.6597 110.619 55.6597ZM124.399 61.9056C124.542 62.0492 124.722 62.121 124.937 62.121H128.886C129.412 62.121 129.771 61.8697 129.963 61.3672L140.121 37.8552C140.193 37.6398 140.229 37.4843 140.229 37.3885C140.229 37.1971 140.145 37.0296 139.978 36.886C139.834 36.7185 139.655 36.6347 139.439 36.6347H135.419C134.94 36.6347 134.581 36.886 134.342 37.3885L130.142 47.8343L126.05 37.3885C125.859 36.886 125.512 36.6347 125.009 36.6347H120.917C120.701 36.6347 120.522 36.7185 120.378 36.886C120.235 37.0296 120.139 37.2091 120.091 37.4244C120.091 37.5202 120.127 37.6637 120.199 37.8552L127.091 54.1521L124.291 60.9005C124.219 61.0441 124.183 61.1997 124.183 61.3672C124.183 61.5826 124.255 61.762 124.399 61.9056ZM149.316 55.6597C146.612 55.6597 144.422 54.9418 142.747 53.5059C141.072 52.0461 140.174 50.024 140.055 47.4395L140.019 46.0036L140.055 44.5319C140.151 41.9474 141.036 39.9252 142.711 38.4654C144.41 37.0057 146.612 36.2758 149.316 36.2758C151.35 36.2758 153.061 36.6467 154.449 37.3885C155.861 38.1065 156.902 38.9799 157.572 40.009C158.266 41.0141 158.637 41.9354 158.685 42.773C158.709 43.0123 158.625 43.2277 158.434 43.4191C158.266 43.5866 158.051 43.6704 157.788 43.6704H153.229C152.965 43.6704 152.762 43.6105 152.618 43.4909C152.475 43.3712 152.343 43.1918 152.224 42.9525C151.936 42.2106 151.566 41.6841 151.111 41.373C150.68 41.0619 150.118 40.9064 149.424 40.9064C147.461 40.9064 146.444 42.1747 146.373 44.7114L146.337 46.0754L146.373 47.26C146.42 48.5523 146.696 49.5095 147.198 50.1317C147.725 50.73 148.467 51.0291 149.424 51.0291C150.166 51.0291 150.752 50.8735 151.183 50.5624C151.613 50.2513 151.96 49.7249 152.224 48.983C152.343 48.7437 152.475 48.5642 152.618 48.4446C152.762 48.3249 152.965 48.2651 153.229 48.2651H157.788C158.027 48.2651 158.23 48.3488 158.398 48.5164C158.589 48.6599 158.685 48.8514 158.685 49.0907C158.685 49.8565 158.35 50.7539 157.68 51.7829C157.034 52.8119 156.005 53.7213 154.593 54.511C153.181 55.2768 151.422 55.6597 149.316 55.6597ZM162.305 53.3264C163.956 54.8819 166.218 55.6597 169.089 55.6597C170.908 55.6597 172.487 55.3606 173.828 54.7623C175.168 54.164 176.185 53.4581 176.879 52.6444C177.597 51.8308 177.956 51.1128 177.956 50.4906C177.956 50.2753 177.872 50.1077 177.704 49.9881C177.561 49.8445 177.381 49.7727 177.166 49.7727H172.715C172.428 49.7727 172.212 49.8086 172.069 49.8804C171.949 49.9283 171.781 50.0838 171.566 50.3471C171.255 50.706 170.908 51.0171 170.525 51.2804C170.142 51.5197 169.652 51.6393 169.053 51.6393C168.096 51.6393 167.366 51.2923 166.864 50.5983C166.361 49.9043 166.086 48.995 166.038 47.8702V47.6189H177.525C177.788 47.6189 178.003 47.5352 178.171 47.3677C178.338 47.1762 178.422 46.9609 178.422 46.7215V45.86C178.422 43.9934 178.063 42.3422 177.345 40.9064C176.651 39.4705 175.598 38.3458 174.186 37.5321C172.799 36.6946 171.087 36.2758 169.053 36.2758C166.253 36.2758 164.016 37.0774 162.341 38.6808C160.69 40.2602 159.816 42.4619 159.72 45.2857V46.5421C159.792 49.5095 160.654 51.7709 162.305 53.3264ZM172.105 43.9934V44.0652H166.038V43.9934C166.038 42.8208 166.301 41.8995 166.828 41.2294C167.378 40.5354 168.12 40.1884 169.053 40.1884C170.011 40.1884 170.752 40.5354 171.279 41.2294C171.829 41.8995 172.105 42.8208 172.105 43.9934Z" fill="white"/>
<path d="M110.422 38.8988L111.949 43.7933H116.889L112.893 46.8182L114.419 51.7127L110.422 48.6877L106.425 51.7127L107.952 46.8182L103.955 43.7933H108.896L110.422 38.8988Z" fill="url(#paint2_linear)"/>
<defs>
<linearGradient id="paint0_linear" x1="177.575" y1="-22.675" x2="74.1094" y2="65.8225" gradientUnits="userSpaceOnUse">
<stop stop-color="#4F00BC"/>
<stop offset="1" stop-color="#430078"/>
</linearGradient>
<linearGradient id="paint1_linear" x1="231.32" y1="66.6427" x2="160.952" y2="100.711" gradientUnits="userSpaceOnUse">
<stop stop-color="#00A8C5"/>
<stop offset="0.997358" stop-color="#FFFF7E"/>
</linearGradient>
<linearGradient id="paint2_linear" x1="113.577" y1="41.0005" x2="105.836" y2="47.9745" gradientUnits="userSpaceOnUse">
<stop stop-color="#4F00BC"/>
<stop offset="1" stop-color="#430078"/>
</linearGradient>
</defs>
</svg>
